<svg id="レイヤー_1" data-name="レイヤー 1" xmlns="http://www.w3.org/2000/svg" width="22.15" height="22.93" viewBox="0 0 22.15 22.93"><defs><style>.cls-1{fill:none;stroke:#725b19;stroke-miterlimit:10;stroke-width:1.34px;}.cls-2{opacity:0.62;}.cls-3{fill:#725b19;}</style></defs><path class="cls-1" d="M826,653.62a3.8,3.8,0,0,0-1.73-3.24,4.08,4.08,0,0,0,.11-.93,3.61,3.61,0,0,0-3.45-3.75,3.17,3.17,0,0,0-1.73.52,3.33,3.33,0,0,0-6.43.06,3.09,3.09,0,0,0-1.78-.54,3.6,3.6,0,0,0-3.42,3.77,4.08,4.08,0,0,0,.11.93,3.93,3.93,0,0,0,.21,6.61,3.76,3.76,0,0,0-.16,1.17,3.6,3.6,0,0,0,3.45,3.75,3.17,3.17,0,0,0,1.73-.52,3.32,3.32,0,0,0,6.21.16,3,3,0,0,0,1.41.32,3.6,3.6,0,0,0,3.42-3.77,3.9,3.9,0,0,1,2-4.54Z" transform="translate(-805.31 -643.13)"/><g class="cls-2"><path class="cls-3" d="M827.46,656a3.83,3.83,0,0,0-1.73-3.25,3.93,3.93,0,0,0,.11-.92,3.61,3.61,0,0,0-3.45-3.75,3.17,3.17,0,0,0-1.73.52,3.33,3.33,0,0,0-6.43.06,3.09,3.09,0,0,0-1.78-.54A3.61,3.61,0,0,0,809,651.9a4.73,4.73,0,0,0,.12.93,3.93,3.93,0,0,0,.21,6.61,4.09,4.09,0,0,0-.17,1.17,3.61,3.61,0,0,0,3.45,3.75,3.2,3.2,0,0,0,1.73-.52,3.32,3.32,0,0,0,6.21.15,3.08,3.08,0,0,0,1.41.33,3.62,3.62,0,0,0,3.43-3.77,3.88,3.88,0,0,0-.14-1A3.74,3.74,0,0,0,827.46,656Z" transform="translate(-805.31 -643.13)"/></g></svg>