<?xml version="1.0" encoding="utf-8"?>
<!-- Generator: Adobe Illustrator 24.0.1, SVG Export Plug-In . SVG Version: 6.00 Build 0)  -->
<svg version="1.1" id="レイヤー_1" xmlns="http://www.w3.org/2000/svg" xmlns:xlink="http://www.w3.org/1999/xlink" x="0px"
	 y="0px" width="320px" height="225.03px" viewBox="0 0 320 225.03" style="enable-background:new 0 0 320 225.03;"
	 xml:space="preserve">
<style type="text/css">
	.st0{fill:#725B19;stroke:#725B19;stroke-width:4.2814;stroke-miterlimit:10;}
	.st1{fill:#725B19;stroke:#FFFFFF;stroke-width:1.0704;stroke-miterlimit:10;}
	.st2{fill:#F7DF88;stroke:#725B19;stroke-width:2.1407;stroke-linecap:round;stroke-linejoin:round;stroke-miterlimit:10;}
	.st3{fill:#FFFFFF;stroke:#725B19;stroke-width:2.1407;stroke-miterlimit:10;}
	.st4{fill:none;stroke:#725B19;stroke-width:2.1407;stroke-miterlimit:10;}
	.st5{fill:#725B19;}
	.st6{fill:none;stroke:#231815;stroke-width:1.1241;stroke-miterlimit:10;}
	.st7{fill:#725B19;stroke:#725B19;stroke-width:1.0704;stroke-miterlimit:10;}
	.st8{fill:none;stroke:#FFFFFF;stroke-width:1.0704;stroke-linecap:round;stroke-linejoin:round;stroke-miterlimit:10;}
	.st9{fill:#725B19;stroke:#F7DF88;stroke-width:1.0704;stroke-miterlimit:10;}
</style>
<g>
	<g>
		<path class="st0" d="M213.67,125.58c0,1.24-27.11,2.25-60.54,2.25c-33.44,0-60.54-1.01-60.54-2.25c0-1.25,27.11-2.26,60.54-2.26
			C186.56,123.33,213.67,124.34,213.67,125.58z"/>
		<g>
			<path class="st1" d="M115.79,62.88c0,0-6.2,15.98,25.38,13.73c14.86-1.13,19.81-7.33,22.25-15.23
				c2.44-7.9-11.72-21.06-11.72-21.06l-19.37-0.37L120.3,50.66l-9.4,1.5L115.79,62.88z"/>
			<path class="st2" d="M128.2,46.52c0,0,9.34,6.33,18.55-0.81c0,0,2.7,7.58,11.72,7.58c0,0-2.19,15.61,12.47,12.97
				c0,0,6.7,14.79,21.56,11.41c14.85-3.38,14.18-17.02,6.34-21.39c0,0,4.8-0.76,5.64-8.02c0.72-6.19-2.66-14.75-10.91-15.29
				c0,0,3.05-3.5,1.29-9.51c-1.87-6.41-10.39-13.71-19.81-8.88c0,0,0.27-9.61-11.85-12.49c-9.92-2.35-14.58,5.75-14.58,5.75
				s-3.2-8.92-15.8-6.27c-10.58,2.99-10.15,11.43-10.15,11.43s-9.4-4.14-17.05,4.01c-3.37,3.59-4.52,9.67-3.26,14.29
				c0,0-8.61,0.58-10.41,9.4c-1.57,7.71,4.92,11.41,4.92,11.41s-10.78,14.93,6.63,20.1c10.05,2.99,16.77-11.02,12.83-16.66
				C116.35,55.55,124.91,55.27,128.2,46.52z"/>
			<path class="st3" d="M232.48,77.11c-4.06-6.35-11.95-6.47-18.12-5.34c0.42-4.36,0.3-7.13,0.3-7.13H85.55
				c0,0.56-1.5,62.92,65.18,62.92c18.68,0,31.91-4.94,41.27-12.05C227.69,115.18,239.6,88.25,232.48,77.11z M211.9,104.61
				c-3.82,2.02-7.74,3.01-11.99,3.45c8.24-9.62,11.9-20.97,13.51-29.67c0.93-0.18,1.64-0.31,1.79-0.33c3.3-0.39,7.5-0.49,10.11,1.94
				c2.08,1.93,2.24,4.81,1.52,7.39c-0.68,2.43-2.09,5.1-3.5,7.17C220.42,98.8,216.44,102.21,211.9,104.61z"/>
			<path class="st4" d="M206.64,73.68c0,0-3.72,43.65-51.76,46.75"/>
			<path class="st5" d="M118.21,62.39c-0.33,0.81-0.83,2.05-0.92,2.92c-0.08,0.84-0.01,1.68,0.3,2.47c0.61,1.58,1.98,2.72,3.42,3.53
				c0.78,0.44,1.62,0.84,2.46,1.16c4.66,1.78,10.06,1.86,15,1.9c5.72,0.05,12.44-0.61,17.07-4.33c1.6-1.29,2.76-3.09,3.22-5.1
				c0.14-0.64,0.26-1.3,0.3-1.95c0,0-11.13-2.46-22.24-2.48C127.16,60.5,118.21,62.38,118.21,62.39z"/>
			<path class="st6" d="M219.43,53.1"/>
			<path class="st7" d="M176.11,63.76c0,3.39-3.13,6.14-6.99,6.14c-3.86,0-6.99-2.75-6.99-6.14c0-3.39,3.13-6.14,6.99-6.14
				C172.98,57.62,176.11,60.36,176.11,63.76z"/>
			<path class="st7" d="M114.97,64.54c0,3.39-3.13,6.14-6.99,6.14c-3.86,0-6.99-2.75-6.99-6.14c0-3.39,3.13-6.14,6.99-6.14
				C111.84,58.4,114.97,61.15,114.97,64.54z"/>
			<line class="st8" x1="120.61" y1="63.14" x2="129.52" y2="61.86"/>
			<line class="st8" x1="143.15" y1="61.69" x2="154.11" y2="63.14"/>
			<path class="st5" d="M214.88,32.04c0,2.28-1.85,4.14-4.14,4.14c-2.28,0-4.14-1.85-4.14-4.14c0-2.28,1.85-4.14,4.14-4.14
				C213.02,27.91,214.88,29.76,214.88,32.04z"/>
			<path class="st5" d="M227.1,19.38c0,3.67-2.97,6.64-6.64,6.64c-3.67,0-6.64-2.97-6.64-6.64c0-3.67,2.98-6.64,6.64-6.64
				C224.12,12.74,227.1,15.71,227.1,19.38z"/>
			<path class="st9" d="M163.76,44.59c0.86,0.81,1.57,1.76,1.28,3.02c-0.42,1.8-2.18,2.8-3.96,2.47c-2.1-0.39-3.89-2.39-4.71-4.26
				c-3.51-7.92,1.45-17.55,9.13-20.72c8.58-3.54,19.31,3.16,17.82,13.06c-1.17,7.71-9.62,12.73-16.51,8.79
				C165.72,46.32,164.63,45.49,163.76,44.59c-2.46-2.55-1.22-8.37,0.8-10.88c1.75-2.18,3.35-3.11,6.07-2.92
				c1.62,0.12,3.19,1.19,3.54,2.84c0.36,1.66-0.66,3.6-2.43,3.87c-0.72,0.11-2.48,0.31-3.94-1.7c-1.32-1.81-0.27-4.58,1.95-5.03"/>
			<path class="st9" d="M112.55,44.59c-0.87,0.81-1.57,1.76-1.28,3.02c0.42,1.8,2.18,2.8,3.96,2.47c2.1-0.39,3.89-2.39,4.71-4.26
				c3.51-7.92-1.45-17.55-9.13-20.72c-8.58-3.54-19.31,3.16-17.82,13.06c1.17,7.71,9.62,12.73,16.5,8.79
				C110.59,46.32,111.69,45.49,112.55,44.59c2.46-2.55,1.22-8.37-0.8-10.88c-1.75-2.18-3.35-3.11-6.07-2.92
				c-1.62,0.12-3.19,1.19-3.54,2.84c-0.36,1.66,0.66,3.6,2.43,3.87c0.72,0.11,2.48,0.31,3.94-1.7c1.32-1.81,0.27-4.58-1.95-5.03"/>
		</g>
	</g>
	<g>
		<path class="st5" d="M53.8,213.84c-0.11,0.22-0.24,0.36-0.41,0.47c-1.16-0.78-2.32-1.18-3.52-1.18c-1.31,0-1.95,0.34-1.95,1.01
			c0,0.47,0.37,0.86,1.12,1.16c1.25,0.56,2.06,0.92,2.41,1.1c1.01,0.54,1.53,1.29,1.53,2.23c-0.13,1.59-1.16,2.36-3.11,2.41
			c-1.25,0-2.34-0.54-3.31-1.61c0.04-0.13,0.15-0.32,0.32-0.56c0.06-0.06,0.19-0.19,0.39-0.39c0.92,0.8,1.81,1.18,2.62,1.18
			c0.95,0,1.46-0.36,1.53-1.05c0-0.5-0.37-0.95-1.1-1.33c-0.21-0.09-0.94-0.41-2.21-0.93c-1.2-0.52-1.78-1.25-1.78-2.23
			c0.02-0.79,0.43-1.4,1.22-1.83c0.54-0.3,1.33-0.47,2.38-0.47c1.55,0.04,2.92,0.51,4.1,1.44C54.02,213.41,53.93,213.6,53.8,213.84z
			"/>
		<path class="st5" d="M58.85,220.8c-0.09,0.11-0.32,0.15-0.69,0.15c-0.39,0-0.6,0-0.69-0.02c-0.17-0.3-0.24-3.05-0.24-8.21
			c0-3.82,0.02-5.87,0.11-6.1c0.11-0.02,0.34-0.04,0.69-0.04c0.13,0,0.36,0.04,0.69,0.09c0,0.3,0.02,2.13,0.11,5.48
			c0.02,3.29,0.04,5.2,0.04,5.74C58.87,219.7,58.85,220.67,58.85,220.8z M65.7,220.93c-0.54,0-0.94-0.11-1.25-0.34
			c0.37-1.72,0.56-3.05,0.56-3.99c0-1.03-0.17-1.78-0.52-2.3c-0.39-0.51-1.01-0.79-1.91-0.82c-0.69,0-1.59,0.24-2.69,0.71
			c-0.19-0.3-0.32-0.67-0.41-1.14c0.86-0.69,1.91-1.05,3.16-1.12c1.31,0.05,2.32,0.47,3.03,1.33c0.6,0.81,0.92,1.91,0.92,3.29
			C66.52,218.54,66.22,220,65.7,220.93z"/>
		<path class="st5" d="M78.98,216.87c-0.9,0.32-3.37,0.56-7.37,0.73c0.47,1.33,1.57,1.98,3.29,1.98c0.77,0,1.57-0.17,2.36-0.54
			c0.21,0.28,0.34,0.66,0.43,1.16c-0.92,0.54-1.87,0.79-2.86,0.79c-1.59-0.02-2.86-0.43-3.76-1.24c-0.79-0.77-1.18-1.78-1.18-2.99
			c0-1.33,0.32-2.41,1.01-3.24c0.95-1.1,2.15-1.66,3.59-1.66c1.38,0,2.45,0.39,3.27,1.14c0.86,0.86,1.31,1.92,1.33,3.18
			C79.09,216.61,79.05,216.84,78.98,216.87z M77.01,214.35c-0.56-0.73-1.4-1.12-2.49-1.12c-0.82,0-1.55,0.32-2.17,0.96
			c-0.52,0.54-0.79,1.25-0.86,2.15c0.71-0.04,2.71-0.21,6.02-0.49C77.48,215.34,77.31,214.82,77.01,214.35z"/>
		<path class="st5" d="M91.47,216.87c-0.9,0.32-3.37,0.56-7.37,0.73c0.47,1.33,1.57,1.98,3.29,1.98c0.77,0,1.57-0.17,2.36-0.54
			c0.21,0.28,0.34,0.66,0.43,1.16c-0.92,0.54-1.87,0.79-2.86,0.79c-1.59-0.02-2.86-0.43-3.76-1.24c-0.8-0.77-1.18-1.78-1.18-2.99
			c0-1.33,0.32-2.41,1.01-3.24c0.94-1.1,2.15-1.66,3.59-1.66c1.38,0,2.45,0.39,3.27,1.14c0.86,0.86,1.31,1.92,1.33,3.18
			C91.57,216.61,91.53,216.84,91.47,216.87z M89.49,214.35c-0.56-0.73-1.4-1.12-2.49-1.12c-0.82,0-1.55,0.32-2.17,0.96
			c-0.51,0.54-0.8,1.25-0.86,2.15c0.71-0.04,2.71-0.21,6.02-0.49C89.96,215.34,89.79,214.82,89.49,214.35z"/>
		<path class="st5" d="M96.23,224.99c-0.32,0.02-0.54,0.04-0.65,0.04c-0.19,0-0.43-0.04-0.69-0.09c-0.09-2.21-0.11-4.53-0.11-7.02
			c0-2.49,0.06-4.49,0.24-6l0.64-0.02c0.13,0,0.34,0.04,0.67,0.11c0.02,2.04,0.04,4.21,0.04,6.49
			C96.39,220.73,96.32,222.88,96.23,224.99z M99.31,220.97c-0.77,0-1.48-0.13-2.13-0.43c0-0.11,0-0.3,0.04-0.6
			c0-0.09,0.04-0.3,0.13-0.64c0.64,0.19,1.27,0.28,1.91,0.28c1.93-0.06,2.9-1.01,2.9-2.81c0-1.24-0.67-2.19-2-2.88
			c-0.84-0.34-1.8-0.56-2.92-0.64c-0.02-0.3-0.02-0.51-0.02-0.65c0-0.13,0.02-0.36,0.07-0.67c1.5,0,2.84,0.3,4,0.88
			c1.59,0.9,2.38,2.23,2.38,3.98C103.67,219.57,102.21,220.97,99.31,220.97z"/>
		<path class="st5" d="M125.97,220.84c-0.95,0-1.74-0.28-2.41-0.84c-0.99,0.73-2.11,1.07-3.35,1.07c-1.16,0-2.15-0.32-2.96-1.01
			c-0.88-0.71-1.31-1.61-1.31-2.73c0-2.06,0.9-3.63,2.75-4.73c-0.47-0.86-0.69-1.74-0.69-2.69c0-0.9,0.26-1.67,0.8-2.32
			c0.58-0.73,1.38-1.1,2.36-1.1c0.9,0,1.61,0.28,2.17,0.84c0.54,0.56,0.82,1.29,0.82,2.17c0,0.99-0.41,1.79-1.2,2.36
			c-0.43,0.34-1.22,0.8-2.43,1.36c0.77,1.55,1.78,3.11,3.07,4.7c0.79-0.88,1.25-2.13,1.35-3.74h1.63c-0.19,1.83-0.82,3.4-1.89,4.73
			c0.39,0.34,0.88,0.5,1.5,0.5c0.22,0,0.56-0.02,0.99-0.09v1.5H125.97z M119.24,213.84c-1.25,0.73-1.87,1.89-1.87,3.44
			c0,0.73,0.3,1.29,0.9,1.72c0.52,0.41,1.16,0.6,1.91,0.6c0.79,0,1.55-0.21,2.26-0.69C121.24,217.47,120.17,215.77,119.24,213.84z
			 M121.16,207.97c-0.64,0-1.12,0.26-1.42,0.77c-0.22,0.36-0.32,0.84-0.32,1.4c0,0.56,0.17,1.18,0.54,1.87
			c1.83-0.69,2.75-1.53,2.75-2.47C122.7,208.51,122.19,207.97,121.16,207.97z"/>
		<path class="st5" d="M146.96,213.84c-0.11,0.22-0.24,0.36-0.41,0.47c-1.16-0.78-2.32-1.18-3.52-1.18c-1.31,0-1.96,0.34-1.96,1.01
			c0,0.47,0.37,0.86,1.12,1.16c1.25,0.56,2.06,0.92,2.41,1.1c1.01,0.54,1.53,1.29,1.53,2.23c-0.13,1.59-1.16,2.36-3.11,2.41
			c-1.25,0-2.34-0.54-3.31-1.61c0.04-0.13,0.15-0.32,0.32-0.56c0.06-0.06,0.19-0.19,0.39-0.39c0.92,0.8,1.81,1.18,2.62,1.18
			c0.95,0,1.46-0.36,1.53-1.05c0-0.5-0.36-0.95-1.1-1.33c-0.21-0.09-0.94-0.41-2.21-0.93c-1.2-0.52-1.78-1.25-1.78-2.23
			c0.02-0.79,0.43-1.4,1.22-1.83c0.54-0.3,1.33-0.47,2.39-0.47c1.55,0.04,2.92,0.51,4.1,1.44
			C147.17,213.41,147.09,213.6,146.96,213.84z"/>
		<path class="st5" d="M151.94,220.84c-0.21,0.11-0.41,0.15-0.62,0.15c-0.24,0-0.45-0.04-0.64-0.11c-0.19-0.43-0.28-2.71-0.28-6.79
			c0-1.8,0.02-4.27,0.11-7.43c0.13-0.06,0.37-0.11,0.71-0.11c0.24,0,0.45,0.05,0.67,0.13c0.11,0.77,0.17,3.65,0.17,8.66
			C152.05,218.78,152.01,220.63,151.94,220.84z"/>
		<path class="st5" d="M164.36,216.87c-0.9,0.32-3.37,0.56-7.37,0.73c0.47,1.33,1.57,1.98,3.29,1.98c0.77,0,1.57-0.17,2.36-0.54
			c0.21,0.28,0.34,0.66,0.43,1.16c-0.92,0.54-1.87,0.79-2.86,0.79c-1.59-0.02-2.86-0.43-3.76-1.24c-0.8-0.77-1.18-1.78-1.18-2.99
			c0-1.33,0.32-2.41,1.01-3.24c0.95-1.1,2.15-1.66,3.59-1.66c1.37,0,2.45,0.39,3.27,1.14c0.86,0.86,1.31,1.92,1.33,3.18
			C164.47,216.61,164.42,216.84,164.36,216.87z M162.39,214.35c-0.56-0.73-1.4-1.12-2.49-1.12c-0.81,0-1.55,0.32-2.17,0.96
			c-0.52,0.54-0.79,1.25-0.86,2.15c0.71-0.04,2.71-0.21,6.01-0.49C162.86,215.34,162.68,214.82,162.39,214.35z"/>
		<path class="st5" d="M176.84,216.87c-0.9,0.32-3.37,0.56-7.37,0.73c0.47,1.33,1.57,1.98,3.29,1.98c0.77,0,1.57-0.17,2.36-0.54
			c0.22,0.28,0.34,0.66,0.43,1.16c-0.92,0.54-1.87,0.79-2.86,0.79c-1.59-0.02-2.86-0.43-3.76-1.24c-0.8-0.77-1.18-1.78-1.18-2.99
			c0-1.33,0.32-2.41,1.01-3.24c0.95-1.1,2.15-1.66,3.59-1.66c1.38,0,2.45,0.39,3.27,1.14c0.86,0.86,1.31,1.92,1.33,3.18
			C176.95,216.61,176.91,216.84,176.84,216.87z M174.87,214.35c-0.56-0.73-1.4-1.12-2.49-1.12c-0.82,0-1.55,0.32-2.17,0.96
			c-0.52,0.54-0.79,1.25-0.86,2.15c0.71-0.04,2.71-0.21,6.01-0.49C175.34,215.34,175.17,214.82,174.87,214.35z"/>
		<path class="st5" d="M181.61,224.99c-0.32,0.02-0.54,0.04-0.64,0.04c-0.19,0-0.43-0.04-0.69-0.09c-0.09-2.21-0.11-4.53-0.11-7.02
			c0-2.49,0.06-4.49,0.24-6l0.65-0.02c0.13,0,0.34,0.04,0.67,0.11c0.02,2.04,0.04,4.21,0.04,6.49
			C181.76,220.73,181.7,222.88,181.61,224.99z M184.69,220.97c-0.77,0-1.48-0.13-2.13-0.43c0-0.11,0-0.3,0.04-0.6
			c0-0.09,0.04-0.3,0.13-0.64c0.64,0.19,1.27,0.28,1.91,0.28c1.93-0.06,2.9-1.01,2.9-2.81c0-1.24-0.67-2.19-2-2.88
			c-0.84-0.34-1.8-0.56-2.92-0.64c-0.02-0.3-0.02-0.51-0.02-0.65c0-0.13,0.02-0.36,0.06-0.67c1.5,0,2.84,0.3,4,0.88
			c1.59,0.9,2.38,2.23,2.38,3.98C189.05,219.57,187.59,220.97,184.69,220.97z"/>
		<path class="st5" d="M193.94,208.74c-0.21,0-0.58-0.09-1.1-0.3c-0.52-0.19-0.84-0.36-0.92-0.49c0.06-0.47,0.26-0.93,0.56-1.35
			c0.19,0,0.54,0.11,1.01,0.28c0.47,0.21,0.79,0.36,0.94,0.49C194.4,207.67,194.24,208.14,193.94,208.74z M193.88,220.84
			c-0.17,0.09-0.41,0.13-0.71,0.13c-0.37,0-0.6-0.02-0.71-0.07c-0.17-0.3-0.24-1.95-0.24-4.94c0-2.38,0.04-3.7,0.13-3.95
			c0.15-0.04,0.39-0.09,0.73-0.09c0.3,0,0.54,0.06,0.73,0.15c0.08,0.3,0.13,1.76,0.13,4.43
			C193.94,219.12,193.92,220.58,193.88,220.84z"/>
		<path class="st5" d="M198.91,220.84c-0.17,0.09-0.39,0.13-0.67,0.13c-0.3,0-0.54-0.02-0.71-0.09c-0.13-0.41-0.23-2.21-0.3-5.44
			c-0.04-1.29-0.04-2.43-0.04-3.42c0.26-0.06,0.49-0.11,0.71-0.11c0.13,0,0.37,0.02,0.67,0.06c0.06,0.52,0.13,1.61,0.21,3.33
			c0.09,2.06,0.15,3.65,0.15,4.81C198.93,220.56,198.91,220.8,198.91,220.84z M205.78,220.93c-0.64,0-1.07-0.11-1.33-0.3
			c0.37-2.13,0.56-3.65,0.56-4.55c0-0.9-0.19-1.57-0.58-2c-0.45-0.45-0.99-0.69-1.61-0.69c-0.73,0.04-1.61,0.34-2.69,0.9
			c-0.39-0.26-0.58-0.64-0.58-1.14c0.88-0.79,2.02-1.2,3.44-1.24c1.07,0,1.98,0.43,2.69,1.24c0.6,0.77,0.9,1.72,0.9,2.8
			C206.53,218.11,206.28,219.76,205.78,220.93z"/>
		<path class="st5" d="M216.53,214.18c-0.77-0.5-1.55-0.75-2.32-0.75c-0.82,0-1.48,0.32-2.02,0.92c-0.54,0.65-0.79,1.38-0.79,2.24
			c0,0.9,0.21,1.61,0.69,2.15c0.49,0.54,1.16,0.79,1.98,0.79c0.82-0.02,1.68-0.3,2.58-0.86c0.09,0.15,0.28,0.51,0.54,1.09
			c-0.95,0.82-1.95,1.22-3.03,1.27c-1.37,0-2.43-0.39-3.2-1.2c-0.77-0.86-1.14-1.96-1.14-3.31c0-1.27,0.39-2.36,1.18-3.31
			c0.82-0.88,1.87-1.33,3.16-1.33c1.12,0,2.11,0.43,2.92,1.29C217.02,213.49,216.85,213.84,216.53,214.18z M219.23,223.67
			c-0.06,0.43-0.49,0.8-1.29,1.1c-0.64,0.15-1.25,0.24-1.82,0.24c-0.47,0-0.82-0.04-1.05-0.13c-0.09-0.13-0.11-0.3-0.11-0.56
			c0-0.26,0-0.45,0.04-0.58c0.47-0.02,0.99-0.06,1.53-0.13c0.77-0.19,1.18-0.43,1.18-0.69c0.04-0.11,0.06-0.34,0.06-0.69
			c0-0.3-0.02-1.53-0.04-3.72c-0.04-1.46-0.04-2.6-0.04-3.42v-1.8c0.21-0.06,0.41-0.11,0.6-0.11c0.3,0,0.56,0.04,0.73,0.08
			c0.17,1.74,0.26,4.81,0.26,9.2C219.28,223.1,219.25,223.5,219.23,223.67z"/>
		<path class="st5" d="M233.82,220.99c-1.14,0-2.17-0.36-3.09-1.09c-1.01-0.84-1.5-1.98-1.5-3.44c0.08-2.84,1.59-4.36,4.53-4.58
			c0.77,0,1.48,0.15,2.15,0.45c0.73,0.34,1.27,0.82,1.61,1.42c-0.21,0.26-0.32,0.39-0.36,0.41c-0.17,0.17-0.32,0.26-0.45,0.3
			c-0.71-0.77-1.7-1.16-2.94-1.18c-1.93,0.19-2.94,1.27-3.01,3.2c0,0.99,0.34,1.78,1.05,2.38c0.67,0.47,1.31,0.71,1.95,0.71
			c0.92,0,1.96-0.43,3.12-1.29c0.19,0.04,0.45,0.36,0.77,0.94C236.48,220.41,235.19,220.99,233.82,220.99z"/>
		<path class="st5" d="M250.15,220.84c-0.54,0.02-0.97,0.02-1.27,0.02c-0.13-0.82-0.17-1.35-0.17-1.63
			c-1.12,1.16-2.28,1.72-3.48,1.72c-1.16,0-2.15-0.32-2.96-1.01c-0.95-0.88-1.4-2.02-1.4-3.39c0-1.42,0.47-2.6,1.42-3.5
			c0.82-0.73,1.81-1.1,2.94-1.12c1.14,0,2.06,0.45,2.75,1.35c-0.13,0.43-0.34,0.73-0.64,0.94c-0.67-0.58-1.37-0.88-2.11-0.88
			c-0.67,0.02-1.29,0.3-1.89,0.84c-0.62,0.6-0.92,1.4-0.92,2.36c0,0.86,0.26,1.59,0.82,2.19c0.54,0.56,1.2,0.82,2.02,0.82
			c1.1,0,2.21-0.62,3.33-1.87c-0.17-2.47-0.24-4.28-0.24-5.42c0.15-0.06,0.39-0.11,0.69-0.15c0.41,0,0.62,0.04,0.64,0.08
			c0.15,0.39,0.28,1.59,0.36,3.61c0.09,1.98,0.13,3.44,0.13,4.38C250.17,220.39,250.15,220.6,250.15,220.84z"/>
		<path class="st5" d="M261.23,213.32c-0.15,0.06-0.54,0.13-1.18,0.17c-0.62,0.04-1.29,0.07-2.02,0.07c0,3.53,0,5.97,0.04,7.35
			c-0.26,0.04-0.49,0.07-0.75,0.07c-0.43,0-0.67-0.02-0.71-0.02c-0.17-2.12-0.26-4.6-0.26-7.39c-1.07,0-2.02-0.04-2.86-0.17
			c-0.06-0.11-0.09-0.3-0.09-0.6c0-0.26,0.02-0.47,0.09-0.65c0.19-0.09,1.14-0.13,2.84-0.13c0-2.71,0.15-4.23,0.49-4.58
			c0.17-0.47,1.38-0.75,3.61-0.88c0.11,0.37,0.17,0.78,0.17,1.25c-1.63,0.24-2.45,0.47-2.45,0.71c-0.09,0.19-0.13,1.35-0.13,3.5
			c1.46,0,2.51,0.04,3.2,0.11c0,0.19,0.02,0.41,0.04,0.62C261.28,213,261.26,213.19,261.23,213.32z"/>
		<path class="st5" d="M273.59,216.87c-0.9,0.32-3.37,0.56-7.37,0.73c0.47,1.33,1.57,1.98,3.29,1.98c0.77,0,1.57-0.17,2.36-0.54
			c0.21,0.28,0.34,0.66,0.43,1.16c-0.92,0.54-1.87,0.79-2.86,0.79c-1.59-0.02-2.86-0.43-3.76-1.24c-0.8-0.77-1.18-1.78-1.18-2.99
			c0-1.33,0.32-2.41,1.01-3.24c0.95-1.1,2.15-1.66,3.59-1.66c1.37,0,2.45,0.39,3.26,1.14c0.86,0.86,1.31,1.92,1.33,3.18
			C273.69,216.61,273.65,216.84,273.59,216.87z M271.61,214.35c-0.56-0.73-1.4-1.12-2.49-1.12c-0.82,0-1.55,0.32-2.17,0.96
			c-0.51,0.54-0.79,1.25-0.86,2.15c0.71-0.04,2.71-0.21,6.02-0.49C272.08,215.34,271.91,214.82,271.61,214.35z"/>
	</g>
	<g>
		<g>
			<path class="st5" d="M54.02,168.21l-4.48-0.96c-0.16,9.29-2,16.25-5.52,20.89c-3.76,4.64-8.88,6.88-15.29,6.88
				c-6.08,0-11.12-1.52-15.13-4.72c-4.48-3.36-6.64-8.16-6.64-14.33c0-5.76,1.84-12.97,5.6-21.61l-11.6,1.92
				c-0.48-0.8-0.8-2.32-0.96-4.64c2.32-1.12,5.36-2,9.2-2.72c3.84-0.8,7.04-1.2,9.76-1.2c1.44,0,2.16,0.32,2.16,0.8
				c0,0.32-0.8,2.24-2.32,5.6c-4.32,9.37-6.48,16.73-6.48,22.17c0,4.72,1.68,8.24,5.04,10.57c2.8,2,6.64,2.96,11.44,2.96
				c10.72,0,16.09-9.2,16.09-27.69c0-0.16,0.56-0.32,1.76-0.32c1.2,0,3.84,0.56,8,1.6C54.66,165.8,54.42,167.41,54.02,168.21z"/>
			<path class="st5" d="M108.85,188.94c-5.2,3.52-11.92,5.44-20.09,5.76c-0.64-1.36-0.88-2.48-0.88-3.44c0-0.32,0-0.64,0.08-1.12
				c6.48-0.56,11.92-2.24,16.33-5.12c5.12-3.36,7.76-7.93,7.76-13.69c0-7.76-14.09-13.12-42.18-16.09
				c-0.16-0.48-0.16-1.12-0.16-2.08c0-0.8,0.08-1.84,0.4-3.04c9.6,0,19.13,1.52,28.57,4.4c12.81,3.92,19.21,9.53,19.21,16.81
				C117.89,178.93,114.85,184.77,108.85,188.94z"/>
			<path class="st5" d="M208.98,164.87c0.14,3.58,0.29,7.38,0.29,11.47c0,2.12-0.15,4.09-0.44,5.84c-1.9,0.29-4.82,0.37-8.62,0.37
				c-3.07,0-5.62-0.15-7.74-0.59c-0.22-3.43-0.29-7.3-0.29-11.61c0-1.53,0.07-3.43,0.29-5.62c2.34-0.29,5.26-0.44,8.69-0.44
				C204.23,164.28,206.86,164.5,208.98,164.87z M197.14,178.23h6.87v-9.42h-6.87V178.23z M218.4,148.65
				c-0.07-1.53-0.07-3.07-0.07-4.67c1.53-0.29,3.07-0.44,4.6-0.44c0.15,1.9,0.22,3.73,0.37,5.48c2.92,0.22,5.77,0.44,8.62,0.66
				c0,1.17-0.22,2.41-0.58,3.8c-2.63,0-5.26-0.07-7.82-0.22c0,1.02,0.07,1.9,0.15,2.78c2.34,0.07,4.38,0.22,5.99,0.44
				c0.15,0.44,0.22,1.02,0.22,1.9c0,1.02-0.07,1.68-0.22,1.97c-0.44,0.22-2.41,0.37-5.84,0.37c0,1.1,0.07,2.12,0.07,2.99
				c1.9-0.07,3.87-0.15,5.84-0.15c0,0.51,0.07,1.1,0.07,1.83v1.9c-1.97,0.36-3.87,0.66-5.77,0.8c0,1.39,0.07,2.7,0.07,3.87
				c-0.8,0.51-2.19,0.73-4.24,0.73c-0.15-1.39-0.29-2.78-0.44-4.16c-2.48,0.22-4.9,0.29-7.23,0.29c-0.29-1.31-0.37-2.63-0.37-4.09
				c2.34-0.29,4.75-0.58,7.23-0.73c-0.15-1.1-0.22-2.19-0.22-3.29c-4.02,0-6.21-0.07-6.57-0.37c-0.15-0.51-0.22-1.24-0.22-2.12
				c0-0.73,0.07-1.39,0.36-1.97c1.9-0.15,3.94-0.22,6.21-0.29c-0.07-1.02-0.15-2.04-0.15-3.07c-2.56-0.15-5.11-0.44-7.6-0.8
				c0-1.39,0.07-2.7,0.29-3.87C213.58,148.36,215.99,148.51,218.4,148.65z M233.81,176.77c-0.44,1.17-0.88,2.26-1.24,3.29
				c5.41-0.29,11.03-0.51,16.94-0.73c0.15,0.58,0.29,1.31,0.29,2.19c0,1.17-0.07,1.97-0.15,2.41c-6.35,0.58-12.78,0.95-19.21,1.17
				c-0.44,1.02-0.8,2.05-1.24,3.07c-0.95,1.9-1.68,3.5-2.26,4.97c-0.44,1.02-0.88,1.9-1.24,2.78c-0.44,1.02-1.02,2.12-1.9,3.43
				c-1.68-0.58-3.14-1.31-4.31-2.34c1.61-4.09,3.29-7.96,4.97-11.68c-3.36,0.15-6.72,0.22-10.08,0.22
				c-0.22-1.39-0.29-2.85-0.29-4.38c4.02-0.29,8.25-0.51,12.63-0.81c0.81-1.75,1.61-3.43,2.41-5.11
				C231.03,175.46,232.57,175.97,233.81,176.77z M252.29,154.06c-0.29,6.79-1.02,12.05-2.04,15.85c-3.07,0-5.99-0.44-8.91-1.32
				v-1.46c0-0.44,0.07-0.88,0.22-1.39c1.31,0.15,2.92,0.29,4.75,0.44c0.29-2.63,0.58-5.33,0.88-8.11c-1.68-0.07-3.29-0.22-4.89-0.37
				c-2.63,7.01-4.75,11.91-6.36,14.83c-1.75-0.29-3.14-0.88-4.09-1.75c1.9-4.82,3.8-9.35,5.77-13.73c-1.83-0.22-3.58-0.51-5.26-0.8
				c0.07-1.46,0.29-2.85,0.58-4.02C239.94,152.82,246.44,153.4,252.29,154.06z M247.39,194.89c-0.73,1.53-1.68,2.78-2.85,3.8
				c-2.48-1.39-4.75-3-6.79-4.9c0.73-1.46,1.53-2.7,2.41-3.8C242.65,191.16,245.06,192.84,247.39,194.89z"/>
			<path class="st5" d="M301.58,160.87c-0.34,0.28-0.69,0.48-0.96,0.62c6.39,4.81,12.86,9.76,19.39,14.92
				c-0.55,1.03-1.51,2.13-3.02,3.37c-7.22-4.47-14.17-9.63-20.83-15.54c-8.73,5.43-17.39,10.79-25.99,16.09
				c-1.51-1.1-2.48-2.2-2.82-3.44c9.21-6.88,19.59-13.41,31.28-19.46C299.92,158.39,300.89,159.56,301.58,160.87z M282.46,148.29
				c-0.14-1.58-0.27-3.16-0.34-4.74c1.51-0.28,3.09-0.41,4.81-0.41c0.21,1.86,0.41,3.64,0.55,5.3c5.36,0.14,10.73,0.27,16.09,0.48
				c0.34-1.79,0.76-3.51,1.24-5.23c1.44,0.14,2.82,0.27,4.06,0.55c-0.21,1.65-0.41,3.3-0.69,4.95c3.44,0.14,6.88,0.34,10.31,0.55
				v1.99c0,1.1-0.14,1.86-0.27,2.27h-10.86c-0.34,1.65-0.69,3.37-1.1,5.16c-1.65-0.07-3.02-0.34-4.19-0.9
				c0.14-1.44,0.34-2.89,0.62-4.33c-5.36-0.07-10.24-0.21-14.71-0.34c0.14,1.92,0.34,3.71,0.48,5.5c-1.51,0.28-3.09,0.41-4.61,0.41
				c-0.34-2.06-0.62-4.06-0.83-6.12c-4.26-0.14-8.18-0.34-11.62-0.62c-0.21-0.34-0.27-1.1-0.27-2.27c0-0.76,0.14-1.51,0.41-2.27
				C275.24,148.22,278.88,148.29,282.46,148.29z M283.08,188.92c-1.51,2.75-3.51,5.64-6.12,8.59c-1.65-0.41-2.89-1.1-3.71-2.13
				c1.24-2.89,3.16-5.78,5.64-8.87C280.6,186.92,281.98,187.75,283.08,188.92z M289.54,178.74c0.62,0,1.24,0,1.79,0
				c-0.27-2.41-0.62-4.81-0.89-7.29c1.31-0.27,2.82-0.55,4.61-0.75c0.41,2.75,0.83,5.43,1.24,8.05c5.91,0.07,10.25,0.14,13.06,0.27
				c0.07,0.55,0.14,1.17,0.14,1.92v2.06c-1.24,0.34-5.43,0.55-12.58,0.62c0.48,4.74,0.89,9.48,1.17,14.44
				c-2.41,0.69-4.88,1.1-7.49,1.1c-0.28-0.75-0.48-1.58-0.55-2.4c1.1-0.28,2.2-0.55,3.37-0.69c-0.55-4.12-1.03-8.25-1.51-12.38
				c-0.82,0-1.65,0-2.47,0c-5.91,0-10.11-0.14-12.72-0.55c-0.21-0.55-0.28-1.31-0.28-2.2c0-0.82,0-1.51,0.14-2.06
				C279.98,178.81,284.32,178.74,289.54,178.74z M316.15,192.63c-0.55,1.1-1.24,2.41-2.2,3.85c-3.3-1.38-6.4-3.16-9.28-5.36
				c0.89-1.51,1.72-2.75,2.54-3.85C310.03,188.65,312.99,190.43,316.15,192.63z"/>
		</g>
		<g>
			<path class="st5" d="M161.03,153.48c0.4,0,1.2-0.16,2.4-0.48c1.12-0.32,1.84-0.64,2-0.88c0-0.48-0.24-1.2-0.56-2.32
				c-0.48-1.04-0.8-1.68-0.96-1.84c-1.28,0.24-2.64,0.64-4.24,1.28C159.83,151.48,160.23,152.92,161.03,153.48z"/>
			<path class="st5" d="M169.59,150.76c0.48,0,1.2-0.16,2.32-0.48c1.04-0.32,1.68-0.64,1.92-0.88c-0.32-1.6-0.8-2.96-1.36-4.08
				c-1.92,0.48-3.36,0.88-4.24,1.2C168.39,148.76,168.79,150.12,169.59,150.76z"/>
			<path class="st5" d="M176.38,176.32c-1.34-3.56-4.72-5.74-8.49-6.31c-3.88-0.59-8.01,0.51-10.59,3.46
				c-1.64,1.87-2.7,4.35-2.47,6.82c0.33,3.54,3.65,6.59,7.2,6.46c1.98-0.07,3.87-1.09,5.12-2.6c0.97-1.18,1.51-3.23,1.56-4.75
				c0.02-0.43-0.02-0.63-0.39-0.82c-0.44-0.23-0.77-0.39-1.38-0.62c-0.33-0.13-1.52-0.54-1.83-0.25c-0.08,0.08-0.26,0.71-0.28,0.82
				c-0.18,0.69-0.35,1.43-0.73,2.05c-0.44,0.72-1.12,1.12-1.94,1.28c-1.46,0.29-2.69-1.14-2.83-2.48c-0.1-0.94,0.24-1.9,0.82-2.65
				c1.19-1.52,3.24-2.12,5.09-2.27c1.8-0.15,3.7,0.25,5.03,1.55c1.99,1.95,2.31,5.22,1.18,7.77c-1.14,2.55-3.51,4.39-6.1,5.42
				c-2.59,1.03-5.41,1.32-8.2,1.47c-5.67,0.28-11.36-0.02-16.99-0.72c-0.94-14.59-1.08-29.22-0.43-43.83
				c0.01-0.15-1.63-0.4-1.8-0.42c-0.64-0.08-1.29-0.1-1.93-0.05c-0.57,0.05-1.15-0.04-1.24,0.59c-0.1,0.68-0.17,1.37-0.25,2.05
				c-0.31,2.73-0.57,5.48-0.77,8.22c-0.39,5.5-0.54,11.01-0.46,16.51c0.09,5.5,0.41,11.01,0.97,16.49c0.11,1.04,0.22,2.08,0.35,3.12
				c0.05,0.45,0.13,0.94,0.45,1.26c0.26,0.26,0.64,0.36,1,0.44c8.66,2.04,17.73,2.31,26.49,0.77c2.51-0.44,5.03-1.03,7.32-2.14
				c2.3-1.11,4.38-2.78,5.65-4.99c1.11-1.93,1.55-4.19,1.62-6.42c0.05-1.66-0.09-3.35-0.62-4.92
				C176.46,176.53,176.42,176.43,176.38,176.32z"/>
		</g>
	</g>
</g>
</svg>
